<svg fill="none" height="11" viewBox="0 0 6 11" width="6" xmlns="http://www.w3.org/2000/svg"><path d="m5.69149 5.68552c.00035-.16661-.06225-.32806-.17693-.45635l-3.84615-4.278224c-.13057-.145614-.31819-.237186-.5216-.254569-.203402-.017384-.405926.040844-.563016.161874-.157089.12103-.255877.294949-.274631.483489-.018753.18855.044063.37628.174631.52189l3.446156 3.82189-3.323078 3.82188c-.063897.07293-.111614.15686-.140408.24694-.028793.09009-.038096.18456-.027374.27796.010723.0935.041259.184.089854.2664.048595.0825.114292.1552.193312.2141.079093.0653.171883.1147.272555.1453.100669.0305.207059.0414.312489.032s.20764-.0388.30023-.0865c.09258-.0477.17354-.1126.2378-.1906l3.71539-4.27827c.09655-.13197.14259-.29013.13077-.44921z" fill="#444"/></svg>