<svg fill="none" height="11" viewBox="0 0 6 11" width="6" xmlns="http://www.w3.org/2000/svg"><path d="m.00187254 5.68552c-.00035143-.16661.06224486-.32806.17692246-.45635l3.846155-4.278224c.13057-.145614.31819-.237186.5216-.254569.2034-.017384.40593.040844.56302.161874.15708.12103.25587.294949.27463.483489.01875.18855-.04407.37628-.17463.52189l-3.44616 3.82189 3.32308 3.82188c.06389.07293.11161.15686.1404.24694.0288.09009.0381.18456.02738.27796-.01072.0935-.04126.184-.08985.2664-.0486.0825-.1143.1552-.19332.2141-.07909.0653-.17188.1147-.27255.1453-.10067.0305-.20706.0414-.31249.032-.10544-.0094-.20764-.0388-.30023-.0865-.09258-.0477-.17354-.1126-.2378-.1906l-3.715388-4.27827c-.0965511-.13197-.14259311-.29013-.13076946-.44921z" fill="#444"/></svg>