<svg width="18" height="16" viewBox="0 0 18 16" fill="none" xmlns="http://www.w3.org/2000/svg">
<path d="M4.73332 11.9264C3.19786 10.8362 1.9828 9.41804 1.29621 8.52257C1.10422 8.27537 1 7.97129 1 7.6583C1 7.3453 1.10422 7.04122 1.29621 6.79403C2.53873 5.17201 5.51978 1.83228 9.00016 1.83228C10.5614 1.83228 12.0211 2.50388 13.2695 3.39187" stroke="#9C9C9C" stroke-width="1.5" stroke-linecap="round" stroke-linejoin="round"/>
<path d="M10.7728 5.89933C10.5417 5.66437 10.2663 5.47749 9.96263 5.34947C9.65893 5.22145 9.33289 5.15483 9.00331 5.15345C8.67373 5.15207 8.34714 5.21595 8.04238 5.34142C7.73761 5.46689 7.46071 5.65146 7.22763 5.88448C6.99456 6.1175 6.80992 6.39436 6.68438 6.6991C6.55884 7.00383 6.49488 7.33041 6.49618 7.65998C6.49748 7.98956 6.56403 8.31562 6.69197 8.61935C6.81992 8.92308 7.00674 9.19848 7.24165 9.42965M2.34232 14.3157L15.658 1M7.33569 13.2371C7.87598 13.3979 8.43644 13.4809 9.00015 13.4834C12.4805 13.4834 15.4616 10.1437 16.7041 8.52169C16.896 8.27427 17.0001 7.97 17 7.65686C16.9998 7.34372 16.8954 7.03954 16.7033 6.79231C16.2666 6.22265 15.7981 5.67806 15.3001 5.16115" stroke="#9C9C9C" stroke-width="1.5" stroke-linecap="round" stroke-linejoin="round"/>
</svg>
