<svg width="10" height="10" viewBox="0 0 10 10" fill="none" xmlns="http://www.w3.org/2000/svg">
<path d="M9.21065 0.19365C9.03439 0.0955686 8.84052 0.0331951 8.64014 0.0100963C8.43975 -0.0130026 8.23677 0.00362618 8.04282 0.0590318C7.84886 0.114437 7.66773 0.207533 7.50978 0.332995C7.35183 0.458456 7.22017 0.613823 7.12231 0.79021L4.27157 5.92047L2.64005 4.28895C2.4984 4.14229 2.32896 4.02531 2.14162 3.94483C1.95427 3.86436 1.75278 3.822 1.54889 3.82023C1.345 3.81845 1.1428 3.85731 0.954088 3.93452C0.765375 4.01172 0.593928 4.12574 0.449751 4.26992C0.305575 4.4141 0.191556 4.58554 0.114347 4.77426C0.0371382 4.96297 -0.00171376 5.16517 5.79772e-05 5.36906C0.00182972 5.57295 0.0441898 5.77444 0.124666 5.96179C0.205143 6.14913 0.322124 6.31857 0.468784 6.46022L3.53988 9.53131C3.8301 9.8223 4.22166 9.98199 4.62551 9.98199L4.83818 9.96664C5.07354 9.93371 5.29805 9.84661 5.49403 9.71218C5.69001 9.57775 5.85211 9.39967 5.96758 9.19196L9.80644 2.28199C9.90445 2.10575 9.96679 1.91193 9.98989 1.7116C10.013 1.51127 9.99641 1.30835 9.94108 1.11442C9.88576 0.9205 9.79278 0.739374 9.66745 0.581387C9.54212 0.4234 9.3869 0.291647 9.21065 0.19365Z" fill="white"/>
</svg>
