<svg fill="none" height="77" viewBox="0 0 81 77" width="81" xmlns="http://www.w3.org/2000/svg"><path d="m68.85 16.2105h-12.15v-4.0526c0-3.22448-1.2801-6.31689-3.5587-8.59693-2.2785-2.28005-5.3689-3.56097-8.5913-3.56097h-8.1c-3.2224 0-6.3128 1.28092-8.5913 3.56097-2.2786 2.28004-3.5587 5.37245-3.5587 8.59693v4.0526h-12.15c-3.22238 0-6.31278 1.2809-8.59135 3.561-2.27856 2.28-3.55865 5.3724-3.55865 8.5969v36.4737c0 3.2245 1.28009 6.3169 3.55865 8.5969 2.27857 2.2801 5.36897 3.561 8.59135 3.561h56.7c3.2224 0 6.3128-1.2809 8.5914-3.561 2.2785-2.28 3.5586-5.3724 3.5586-8.5969v-36.4737c0-3.2245-1.2801-6.3169-3.5586-8.5969-2.2786-2.2801-5.369-3.561-8.5914-3.561zm-36.45-4.0526c0-1.0748.4267-2.1056 1.1862-2.86565.7595-.76001 1.7897-1.18699 2.8638-1.18699h8.1c1.0741 0 2.1043.42698 2.8638 1.18699.7595.76005 1.1862 1.79085 1.1862 2.86565v4.0526h-16.2zm40.5 52.6842c0 1.0748-.4267 2.1056-1.1862 2.8656-.7595.7601-1.7897 1.187-2.8638 1.187h-56.7c-1.0741 0-2.1043-.4269-2.86378-1.187-.75952-.76-1.18622-1.7908-1.18622-2.8656v-20.4658h12.15v4.2553c0 1.0748.4267 2.1056 1.1862 2.8656s1.7897 1.187 2.8638 1.187 2.1043-.427 2.8638-1.187 1.1862-1.7908 1.1862-2.8656v-4.2553h24.3v4.2553c0 1.0748.4267 2.1056 1.1862 2.8656s1.7897 1.187 2.8638 1.187 2.1043-.427 2.8638-1.187 1.1862-1.7908 1.1862-2.8656v-4.2553h12.15zm0-28.3684h-64.8v-8.1053c0-1.0748.4267-2.1056 1.18622-2.8656.75948-.76 1.78968-1.187 2.86378-1.187h56.7c1.0741 0 2.1043.427 2.8638 1.187s1.1862 1.7908 1.1862 2.8656z" fill="#fff"/></svg>