<svg fill="none" height="81" viewBox="0 0 81 81" width="81" xmlns="http://www.w3.org/2000/svg"><g clip-rule="evenodd" fill="#fff" fill-rule="evenodd"><path d="m55.227 29.4551c0 3.9059-1.5516 7.6518-4.3135 10.4137s-6.5078 4.3135-10.4138 4.3135c-3.9059 0-7.6518-1.5516-10.4137-4.3135s-4.3135-6.5078-4.3135-10.4137c0-3.906 1.5516-7.6519 4.3135-10.4138s6.5078-4.3135 10.4137-4.3135c3.906 0 7.6519 1.5516 10.4138 4.3135s4.3135 6.5078 4.3135 10.4138zm-7.3636 0c0 1.9529-.7758 3.8259-2.1568 5.2068-1.3809 1.381-3.2539 2.1568-5.2069 2.1568-1.9529 0-3.8259-.7758-5.2068-2.1568-1.381-1.3809-2.1568-3.2539-2.1568-5.2068 0-1.953.7758-3.826 2.1568-5.2069 1.3809-1.381 3.2539-2.1568 5.2068-2.1568 1.953 0 3.826.7758 5.2069 2.1568 1.381 1.3809 2.1568 3.2539 2.1568 5.2069z"/><path d="m40.5 0c-22.367 0-40.5 18.133-40.5 40.5s18.133 40.5 40.5 40.5 40.5-18.133 40.5-40.5-18.133-40.5-40.5-40.5zm-33.13636 40.5c0 7.695 2.62513 14.7788 7.02486 20.4046 3.0899-4.0577 7.0761-7.3461 11.6472-9.6084 4.5711-2.2622 9.6034-3.437 14.7036-3.4326 5.0343-.0047 10.0032 1.1397 14.5282 3.346 4.525 2.2064 8.4867 5.4165 11.5833 9.3858 3.1901-4.184 5.338-9.0676 6.266-14.2465.9281-5.1789.6095-10.5044-.9292-15.5358-1.5388-5.0314-4.2536-9.6241-7.9197-13.398s-8.1782-6.6205-13.1629-8.30441c-4.9847-1.68388-10.2987-2.15658-15.5023-1.37897-5.2037.7776-10.1474 2.78318-14.422 5.85068-4.2747 3.0676-7.7575 7.1089-10.1602 11.7897-2.40266 4.6808-3.6562 9.8665-3.65686 15.1279zm33.13636 33.1364c-7.6068.0114-14.984-2.6055-20.8833-7.4079 2.3745-3.3992 5.535-6.1747 9.2126-8.0901s7.7635-2.9141 11.91-2.9111c4.0948-.0033 8.1313.9704 11.7742 2.8402s6.7872 4.5818 9.1717 7.9107c-5.9451 4.9583-13.4439 7.669-21.1852 7.6582z"/></g></svg>