<svg width="33" height="25" viewBox="0 0 33 25" fill="none" xmlns="http://www.w3.org/2000/svg">
<path fill-rule="evenodd" clip-rule="evenodd" d="M1.26923 0C0.93261 0 0.609776 0.145879 0.371749 0.405545C0.133722 0.66521 0 1.01739 0 1.38462C0 1.75184 0.133722 2.10402 0.371749 2.36369C0.609776 2.62335 0.93261 2.76923 1.26923 2.76923H31.7308C32.0674 2.76923 32.3902 2.62335 32.6283 2.36369C32.8663 2.10402 33 1.75184 33 1.38462C33 1.01739 32.8663 0.66521 32.6283 0.405545C32.3902 0.145879 32.0674 0 31.7308 0H1.26923ZM0 12.4615C0 12.0943 0.133722 11.7421 0.371749 11.4825C0.609776 11.2228 0.93261 11.0769 1.26923 11.0769H31.7308C32.0674 11.0769 32.3902 11.2228 32.6283 11.4825C32.8663 11.7421 33 12.0943 33 12.4615C33 12.8288 32.8663 13.1809 32.6283 13.4406C32.3902 13.7003 32.0674 13.8462 31.7308 13.8462H1.26923C0.93261 13.8462 0.609776 13.7003 0.371749 13.4406C0.133722 13.1809 0 12.8288 0 12.4615ZM0 23.5385C0 23.1712 0.133722 22.8191 0.371749 22.5594C0.609776 22.2997 0.93261 22.1538 1.26923 22.1538H31.7308C32.0674 22.1538 32.3902 22.2997 32.6283 22.5594C32.8663 22.8191 33 23.1712 33 23.5385C33 23.9057 32.8663 24.2579 32.6283 24.5175C32.3902 24.7772 32.0674 24.9231 31.7308 24.9231H1.26923C0.93261 24.9231 0.609776 24.7772 0.371749 24.5175C0.133722 24.2579 0 23.9057 0 23.5385Z" fill="#45DF85"/>
</svg>
